# xmcd
#
# Track frame offsets:
#	150
#	15042
#	29740
#	44510
#	59070
#	66875
#	78725
#	89100
#	105150
#	118700
#	133362
#	142050
#	158125
#	170725
#	182665
#	192640
#	202562
#	213522
#	226095
#	243130
#
# Disc length: 3504
#
# Revision: 2
# Processed by: cddbd v1.5.1PL0 Copyright (c) Steve Scherf et al.
# Submitted via: audiograbber 1.80
# Normalized: r1:DSETVAR1
#
DISCID=220dae14
DTITLE=Various Artist - Inspirational Favorites
DYEAR=1900
DGENRE=
TTITLE0=Sonny James - How Great Thou Art
TTITLE1=Christy Lane - One Day At A Time
TTITLE2=Elvis Presley - Put Your Hand In The Hand
TTITLE3=Charley Pride - Whispering Hope
TTITLE4=The Browns - The Church In The Wild Wood
TTITLE5=Jim Reeves - May The Good Lord Bless And Keep You
TTITLE6=Dolly Parton - I Believe
TTITLE7=Eddy Arnold - I Love To Tell The Story
TTITLE8=The Statler Brothers - In The Garden
TTITLE9=Tennessee Ernie Ford - (There'll Be) Peace In The Valley (For Me)
TTITLE10=Connie Smith - Wings Of A Dove
TTITLE11=Ray Stevens - Everything Is Beautiful
TTITLE12=Stuart Hamblen - It Is No Secret (What God Can Do)
TTITLE13=Danny Davis - The Great Speckled Bird
TTITLE14=Jimmy Dean - I'll Fly Away
TTITLE15=Anita Kerr Singers - Just A Closer Walk With Thee
TTITLE16=George Jones - Can The Circle Be Unbroken
TTITLE17=Skeeter Davis - Precious Memories
TTITLE18=The Nitty Gritty Birt Band - I Saw The Light
TTITLE19=Glen Campbell - Amazing Grace
EXTD=
EXTT0=
EXTT1=
EXTT2=
EXTT3=
EXTT4=
EXTT5=
EXTT6=
EXTT7=
EXTT8=
EXTT9=
EXTT10=
EXTT11=
EXTT12=
EXTT13=
EXTT14=
EXTT15=
EXTT16=
EXTT17=
EXTT18=
EXTT19=
PLAYORDER=
